<?xml version="1.0" encoding="UTF-8"?>
<svg width="44px" height="44px" viewBox="0 0 44 44" version="1.1" xmlns="http://www.w3.org/2000/svg" xmlns:xlink="http://www.w3.org/1999/xlink">
    <!-- Generator: Sketch 47.1 (45422) - http://www.bohemiancoding.com/sketch -->
    <title>icon/user profile/icon_invitationcode</title>
    <desc>Created with Sketch.</desc>
    <defs></defs>
    <g id="Symbols" stroke="none" stroke-width="1" fill="none" fill-rule="evenodd">
        <g id="icon/user-profile/icon_invitationcode">
            <rect id="Rectangle-6" fill="#FF9D62" x="0" y="0" width="44" height="44" rx="22"></rect>
            <path d="M22,16.5658333 C22,16.5658333 19,14.5666667 19,17.2325 C19,19.8983333 22,21.2308333 22,21.2308333 C22,21.2308333 25,19.8983333 25,17.2325 C25,14.5666667 22,16.5658333 22,16.5658333 L22,16.5658333 Z M29.9774286,20.1766667 L23.6602857,27.3841667 L20.3397143,27.3841667 L14.0225714,20.1766667 L14.0225714,15.0766667 C14.0225714,14.2275 14.6945714,13.5383333 15.5225714,13.5383333 L28.4774286,13.5383333 C29.3054286,13.5383333 29.9774286,14.2275 29.9774286,15.0766667 L29.9774286,20.1766667 Z M32.2857143,16.6158333 L31.75,16.6158333 L31.75,13.5383333 C31.75,12.6891667 31.0788571,12 30.25,12 L13.75,12 C12.9211429,12 12.25,12.6891667 12.25,13.5383333 L12.25,16.6158333 L11.7142857,16.6158333 C10.768,16.6158333 10,17.3616667 10,18.2825 L10,30.3333333 C10,31.2533333 10.768,32 11.7142857,32 L32.2857143,32 C33.232,32 34,31.2533333 34,30.3333333 L34,18.2825 C34,17.3616667 33.232,16.6158333 32.2857143,16.6158333 L32.2857143,16.6158333 Z" id="Page-1" fill="#FFFFFF"></path>
        </g>
    </g>
</svg>