<?xml version="1.0" encoding="UTF-8"?>
<svg width="44px" height="44px" viewBox="0 0 44 44" version="1.1" xmlns="http://www.w3.org/2000/svg" xmlns:xlink="http://www.w3.org/1999/xlink">
    <!-- Generator: Sketch 47.1 (45422) - http://www.bohemiancoding.com/sketch -->
    <title>icon/user profile/icon_coupon</title>
    <desc>Created with Sketch.</desc>
    <defs>
        <polygon id="path-1" points="24 0 -2.22044605e-15 0 -5.55111512e-16 15.9997818 24 15.9997818"></polygon>
    </defs>
    <g id="Symbols" stroke="none" stroke-width="1" fill="none" fill-rule="evenodd">
        <g id="icon/user-profile/icon_coupon">
            <rect id="Rectangle-6" fill="#FF806C" x="0" y="0" width="44" height="44" rx="22"></rect>
            <g id="Page-1" transform="translate(10.000000, 14.000000)">
                <mask id="mask-2" fill="white">
                    <use xlink:href="#path-1"></use>
                </mask>
                <g id="Clip-2"></g>
                <path d="M16.5,7.3416 C16.5,7.70523636 16.19625,7.99978182 15.82125,7.99978182 L12.75,7.99978182 L12.75,8.72705455 L15.82125,8.72705455 C16.19625,8.72705455 16.5,9.02232727 16.5,9.38596364 L16.5,9.52341818 C16.5,9.88705455 16.19625,10.1816 15.82125,10.1816 L12.75,10.1816 L12.75,13.8412364 C12.75,14.2303273 12.4245,14.5452364 12.02325,14.5452364 L11.97675,14.5452364 C11.5755,14.5452364 11.25,14.2303273 11.25,13.8412364 L11.25,10.1816 L8.17875,10.1816 C7.80375,10.1816 7.5,9.88705455 7.5,9.52341818 L7.5,9.38596364 C7.5,9.02232727 7.80375,8.72705455 8.17875,8.72705455 L11.25,8.72705455 L11.25,7.99978182 L8.17875,7.99978182 C7.80375,7.99978182 7.5,7.70523636 7.5,7.3416 L7.5,7.20414545 C7.5,6.84050909 7.80375,6.54523636 8.17875,6.54523636 L10.233,6.54523636 C10.23225,6.54523636 10.23225,6.54450909 10.23225,6.54450909 L8.7555,3.44487273 C8.54925,3.01287273 8.6775,2.55105455 9.039,2.41723636 C9.39975,2.28414545 9.864,2.52850909 10.07025,2.96050909 L11.54625,6.05941818 C11.625,6.22523636 11.64075,6.39105455 11.628,6.54523636 L11.97675,6.54523636 L12.02325,6.54523636 L12.42375,6.54523636 C12.41025,6.39105455 12.426,6.22523636 12.5055,6.05941818 L13.98225,2.96050909 C14.187,2.52850909 14.65125,2.28414545 15.0135,2.41723636 C15.37425,2.55105455 15.50175,3.01287273 15.29625,3.44487273 L13.82025,6.54450909 C13.8195,6.54450909 13.8195,6.54523636 13.8195,6.54523636 L15.82125,6.54523636 C16.19625,6.54523636 16.5,6.84050909 16.5,7.20414545 L16.5,7.3416 Z M24,5.09069091 L24,1.45432727 C24,0.651418182 23.328,-0.000218181818 22.5,-0.000218181818 L1.5,-0.000218181818 C0.672,-0.000218181818 0,0.651418182 0,1.45432727 L0,5.09069091 C1.65675,5.09069091 3,6.39323636 3,7.99978182 C3,9.60632727 1.65675,10.9088727 0,10.9088727 L0,14.5452364 C0,15.3488727 0.672,15.9997818 1.5,15.9997818 L22.5,15.9997818 C23.328,15.9997818 24,15.3488727 24,14.5452364 L24,10.9088727 C22.34325,10.9088727 21,9.60632727 21,7.99978182 C21,6.39323636 22.34325,5.09069091 24,5.09069091 L24,5.09069091 Z" id="Fill-1" fill="#FFFFFF" mask="url(#mask-2)"></path>
            </g>
        </g>
    </g>
</svg>